<?xml version="1.0" standalone="no"?>
<!DOCTYPE svg PUBLIC "-//W3C//DTD SVG 20010904//EN"
 "http://www.w3.org/TR/2001/REC-SVG-20010904/DTD/svg10.dtd">
<svg version="1.0" xmlns="http://www.w3.org/2000/svg"
 width="1248.000000pt" height="832.000000pt" viewBox="0 0 1248.000000 832.000000"
 preserveAspectRatio="xMidYMid meet">

<g transform="translate(0.000000,832.000000) scale(0.100000,-0.100000)"
fill="currentColor" stroke="none">
<path fill="currentColor" d="M5840 5519 l0 -941 -22 16 c-146 103 -309 187 -446 230 -180 56 -417
83 -580 67 -388 -40 -679 -178 -953 -451 -182 -182 -296 -360 -378 -593 -53
-152 -74 -273 -78 -462 l-3 -170 -190 -3 -190 -2 0 -85 0 -85 345 0 346 0 -3
-141 -3 -141 -345 -1 -345 -2 0 -45 0 -45 320 -3 320 -3 -275 -141 c-369 -190
-364 -187 -368 -227 -2 -19 0 -37 5 -42 5 -5 542 -9 1196 -9 653 0 1187 -4
1187 -8 0 -7 -37 -22 -435 -167 -99 -37 -183 -69 -187 -73 -4 -4 288 -6 648
-4 l654 3 58 38 c54 36 552 351 713 452 41 26 121 77 177 113 l102 66 1136 0
1135 0 -3 48 -3 47 -322 3 -323 2 0 140 0 140 279 0 c153 0 299 3 325 6 l46 7
0 78 0 79 -630 0 c-378 0 -630 4 -630 9 0 5 17 15 38 21 59 19 284 134 354
181 150 101 307 249 415 393 72 96 193 321 193 358 0 18 -35 18 -817 18 l-818
-1 -5 1005 -5 1006 -158 130 -159 130 -271 -2 -272 -3 -5 -90 -5 -89 -70 59
c-38 32 -87 73 -108 92 l-37 33 -275 0 -275 0 0 -941z m470 -249 l0 -1090 -54
0 -54 0 -60 83 c-33 45 -91 115 -129 156 l-68 75 -3 933 -3 933 185 0 186 0 0
-1090z m775 0 l0 -1085 -185 0 -185 0 -3 1088 -2 1087 187 -2 188 -3 0 -1085z
m-509 903 l34 -28 0 -983 0 -983 -37 3 -38 3 -3 1008 c-1 554 0 1007 3 1007 4
0 22 -12 41 -27z m-1398 -1403 c114 -24 254 -70 350 -116 98 -47 263 -159 343
-232 57 -53 188 -207 197 -232 2 -6 -84 -11 -202 -12 l-205 -3 29 -67 c114
-271 316 -509 583 -686 l68 -45 -3 -81 -3 -81 -1421 -3 -1421 -2 -7 31 c-12
62 -6 229 13 341 53 309 186 564 410 789 344 343 817 492 1269 399z m3177
-692 c6 -6 -26 -111 -55 -182 -112 -268 -369 -484 -676 -568 -114 -31 -365
-31 -476 0 -189 52 -335 136 -463 266 -122 122 -223 305 -250 449 l-7 37 343
3 c417 3 1579 0 1584 -5z m615 1 c0 -6 -18 -41 -39 -77 -230 -395 -638 -663
-1150 -757 -141 -26 -197 -29 -104 -6 135 34 307 128 440 240 138 116 275 335
324 516 12 44 23 83 26 88 7 12 503 9 503 -4z m-2646 -11 c54 -205 102 -311
193 -433 136 -182 314 -309 535 -381 48 -15 86 -29 85 -31 -6 -6 -195 29 -289
52 -386 98 -700 308 -921 617 -52 73 -107 167 -107 183 0 3 113 5 250 5 192 0
251 -3 254 -12z m281 -823 c28 -10 54 -22 60 -27 5 -4 -44 -8 -108 -8 l-117 0
0 55 0 55 58 -28 c31 -16 80 -37 107 -47z m2223 -95 c475 0 492 -1 492 -19 0
-18 -17 -19 -412 -25 -227 -3 -1637 -5 -3133 -3 l-2720 2 -3 22 -3 23 2323 3
c1278 2 2467 2 2643 0 176 -1 542 -3 813 -3z m-4598 -255 l0 -145 -232 2 -233
3 -3 143 -3 142 236 0 235 0 0 -145z m558 3 l-3 -143 -235 0 -235 0 -3 143 -3
142 241 0 241 0 -3 -142z m550 0 l-3 -143 -235 0 -235 0 -3 143 -3 142 241 0
241 0 -3 -142z m552 -3 l0 -145 -237 2 -238 3 -3 143 -3 142 241 0 240 0 0
-145z m560 5 l0 -140 -239 0 -238 0 -7 31 c-3 17 -6 80 -6 140 l0 109 245 0
245 0 0 -140z m546 124 c-3 -9 -6 -72 -6 -140 l0 -124 -235 0 -235 0 0 140 0
140 241 0 c216 0 241 -2 235 -16z m554 -124 l0 -140 -240 0 -240 0 0 140 0
140 240 0 240 0 0 -140z m550 0 l0 -140 -240 0 -240 0 0 140 0 140 240 0 240
0 0 -140z m560 0 l0 -140 -245 0 -245 0 0 140 0 140 245 0 245 0 0 -140z
m-1630 -208 c0 -4 -64 -47 -142 -96 -79 -49 -303 -191 -498 -315 l-355 -225
-455 -3 c-262 -2 -450 0 -445 5 6 5 24 14 40 20 17 5 118 42 225 82 107 39
283 102 390 140 107 37 263 93 345 123 83 31 272 101 422 156 150 55 280 104
290 110 21 12 183 15 183 3z m-462 -37 c-3 -3 -88 -35 -189 -71 -178 -63 -458
-164 -624 -225 l-80 -29 -1225 0 c-1047 0 -1222 2 -1210 14 8 8 139 77 290
155 151 77 282 145 290 150 15 10 2758 16 2748 6z"/>
</g>
</svg>


