<svg xmlns="http://www.w3.org/2000/svg" viewBox="0 0 1248 832"><path fill="currentColor" d="M584 280.1v94.1l-2.2-1.6c-14.6-10.3-30.9-18.7-44.6-23-18-5.6-41.7-8.3-58-6.7-38.8 4-67.9 17.8-95.3 45.1-18.2 18.2-29.6 36-37.8 59.3-5.3 15.2-7.4 27.3-7.8 46.2l-.3 17-19 .3-19 .2v17h69.1l-.3 14.1-.3 14.1-34.5.1-34.5.2v9l32 .3 32 .3-27.5 14.1c-36.9 19-36.4 18.7-36.8 22.7-.2 1.9 0 3.7.5 4.2s54.2.9 119.6.9c65.3 0 118.7.4 118.7.8 0 .7-3.7 2.2-43.5 16.7-9.9 3.7-18.3 6.9-18.7 7.3s28.8.6 64.8.4l65.4-.3 5.8-3.8c5.4-3.6 55.2-35.1 71.3-45.2 4.1-2.6 12.1-7.7 17.7-11.3L711 566h227.1l-.3-4.8-.3-4.7-32.2-.3-32.3-.2v-28h27.9c15.3 0 29.9-.3 32.5-.6l4.6-.7V511h-63c-37.8 0-63-.4-63-.9s1.7-1.5 3.8-2.1c5.9-1.9 28.4-13.4 35.4-18.1 15-10.1 30.7-24.9 41.5-39.3 7.2-9.6 19.3-32.1 19.3-35.8 0-1.8-3.5-1.8-81.7-1.8l-81.8.1-.5-100.5-.5-100.6-15.8-13-15.9-13-27.1.2-27.2.3-.5 9-.5 8.9-7-5.9c-3.8-3.2-8.7-7.3-10.8-9.2L639 186h-55zm47 24.9v109h-10.8l-6-8.3c-3.3-4.5-9.1-11.5-12.9-15.6l-6.8-7.5-.3-93.3-.3-93.3H631zm77.5 0v108.5h-37l-.3-108.8L671 196l18.7.2 18.8.3zm-50.9-90.3 3.4 2.8v196.6l-3.7-.3-3.8-.3-.3-100.8c-.1-55.4 0-100.7.3-100.7.4 0 2.2 1.2 4.1 2.7M517.8 355c11.4 2.4 25.4 7 35 11.6 9.8 4.7 26.3 15.9 34.3 23.2 5.7 5.3 18.8 20.7 19.7 23.2.2.6-8.4 1.1-20.2 1.2l-20.5.3 2.9 6.7c11.4 27.1 31.6 50.9 58.3 68.6l6.8 4.5-.3 8.1-.3 8.1-142.1.3-142.1.2-.7-3.1c-1.2-6.2-.6-22.9 1.3-34.1 5.3-30.9 18.6-56.4 41-78.9 34.4-34.3 81.7-49.2 126.9-39.9m317.7 69.2c.6.6-2.6 11.1-5.5 18.2-11.2 26.8-36.9 48.4-67.6 56.8-11.4 3.1-36.5 3.1-47.6 0-18.9-5.2-33.5-13.6-46.3-26.6-12.2-12.2-22.3-30.5-25-44.9l-.7-3.7 34.3-.3c41.7-.3 157.9 0 158.4.5m61.5-.1c0 .6-1.8 4.1-3.9 7.7-23 39.5-63.8 66.3-115 75.7-14.1 2.6-19.7 2.9-10.4.6 13.5-3.4 30.7-12.8 44-24 13.8-11.6 27.5-33.5 32.4-51.6 1.2-4.4 2.3-8.3 2.6-8.8.7-1.2 50.3-.9 50.3.4m-264.6 1.1c5.4 20.5 10.2 31.1 19.3 43.3 13.6 18.2 31.4 30.9 53.5 38.1 4.8 1.5 8.6 2.9 8.5 3.1-.6.6-19.5-2.9-28.9-5.2-38.6-9.8-70-30.8-92.1-61.7-5.2-7.3-10.7-16.7-10.7-18.3 0-.3 11.3-.5 25-.5 19.2 0 25.1.3 25.4 1.2m28.1 82.3c2.8 1 5.4 2.2 6 2.7.5.4-4.4.8-10.8.8H644v-11l5.8 2.8c3.1 1.6 8 3.7 10.7 4.7m222.3 9.5c47.5 0 49.2.1 49.2 1.9s-1.7 1.9-41.2 2.5c-22.7.3-163.7.5-313.3.3l-272-.2-.3-2.2-.3-2.3 232.3-.3c127.8-.2 246.7-.2 264.3 0 17.6.1 54.2.3 81.3.3M423 542.5V557l-23.2-.2-23.3-.3-.3-14.3-.3-14.2H423zm55.8-.3-.3 14.3h-47l-.3-14.3-.3-14.2h48.2zm55 0-.3 14.3h-47l-.3-14.3-.3-14.2h48.2zm55.2.3V557l-23.7-.2-23.8-.3-.3-14.3-.3-14.2H589zm56-.5v14h-47.7l-.7-3.1c-.3-1.7-.6-8-.6-14V528h49zm54.6-12.4c-.3.9-.6 7.2-.6 14V556h-47v-28h24.1c21.6 0 24.1.2 23.5 1.6M755 542v14h-48v-28h48zm55 0v14h-48v-28h48zm56 0v14h-49v-28h49zm-163 20.8c0 .4-6.4 4.7-14.2 9.6-7.9 4.9-30.3 19.1-49.8 31.5l-35.5 22.5-45.5.3c-26.2.2-45 0-44.5-.5.6-.5 2.4-1.4 4-2 1.7-.5 11.8-4.2 22.5-8.2 10.7-3.9 28.3-10.2 39-14 10.7-3.7 26.3-9.3 34.5-12.3 8.3-3.1 27.2-10.1 42.2-15.6s28-10.4 29-11c2.1-1.2 18.3-1.5 18.3-.3m-46.2 3.7c-.3.3-8.8 3.5-18.9 7.1-17.8 6.3-45.8 16.4-62.4 22.5l-8 2.9H445c-104.7 0-122.2-.2-121-1.4.8-.8 13.9-7.7 29-15.5 15.1-7.7 28.2-14.5 29-15 1.5-1 275.8-1.6 274.8-.6"/></svg>
